<?xml version="1.0" encoding="UTF-8"?>
<svg width="3083" height="555.14" version="1.1" viewBox="0 0 815.72 146.88" xmlns="http://www.w3.org/2000/svg" xmlns:cc="http://creativecommons.org/ns#" xmlns:dc="http://purl.org/dc/elements/1.1/" xmlns:rdf="http://www.w3.org/1999/02/22-rdf-syntax-ns#">
 <metadata>
  <rdf:RDF>
   <cc:Work rdf:about="">
    <dc:format>image/svg+xml</dc:format>
    <dc:type rdf:resource="http://purl.org/dc/dcmitype/StillImage"/>
   </cc:Work>
  </rdf:RDF>
 </metadata>
 <g transform="translate(-.047243 -19.978)">
  <text fill="#000000" font-family="georgia" font-size="10.583px" style="line-height:1.25;shape-inside:url(#rect12);white-space:pre" xml:space="preserve"/>
  <text fill="#000000" font-family="georgia" font-size="10.583px" style="line-height:1.25;shape-inside:url(#rect18);white-space:pre" xml:space="preserve"/>
  <g aria-label="inzight">
   <g transform="matrix(.97781 0 0 .97781 11.296 6.0944)">
    <path d="m39.859 102a10.775 10.775 0 0 1-10.775 10.775 10.775 10.775 0 0 1-10.775-10.775 10.775 10.775 0 0 1 10.775-10.775 10.775 10.775 0 0 1 10.775 10.775z" fill-opacity="0" stroke="#18afe3" stroke-width="5.5084"/>
   </g>
   <g>
    <g transform="matrix(.97781 0 0 .97781 43.046 6.0944)">
     <path d="m39.859 102a10.775 10.775 0 0 1-10.775 10.775 10.775 10.775 0 0 1-10.775-10.775 10.775 10.775 0 0 1 10.775-10.775 10.775 10.775 0 0 1 10.775 10.775z" fill-opacity="0" stroke="#18afe3" stroke-width="5.5084"/>
    </g>
    <g transform="matrix(.97781 0 0 .97781 74.796 6.0944)">
     <path d="m39.859 102a10.775 10.775 0 0 1-10.775 10.775 10.775 10.775 0 0 1-10.775-10.775 10.775 10.775 0 0 1 10.775-10.775 10.775 10.775 0 0 1 10.775 10.775z" fill-opacity="0" stroke="#18afe3" stroke-width="5.5084"/>
    </g>
    <g transform="matrix(.97781 0 0 .97781 106.55 6.0944)">
     <path d="m39.859 102a10.775 10.775 0 0 1-10.775 10.775 10.775 10.775 0 0 1-10.775-10.775 10.775 10.775 0 0 1 10.775-10.775 10.775 10.775 0 0 1 10.775 10.775z" fill-opacity="0" stroke="#18afe3" stroke-width="5.5084"/>
    </g>
    <g transform="matrix(.97781 0 0 .97781 43.046 -23.01)">
     <path d="m39.859 102a10.775 10.775 0 0 1-10.775 10.775 10.775 10.775 0 0 1-10.775-10.775 10.775 10.775 0 0 1 10.775-10.775 10.775 10.775 0 0 1 10.775 10.775z" fill-opacity="0" stroke="#18afe3" stroke-width="5.5084"/>
    </g>
    <g transform="matrix(.97781 0 0 .97781 74.796 -23.01)">
     <path d="m39.859 102a10.775 10.775 0 0 1-10.775 10.775 10.775 10.775 0 0 1-10.775-10.775 10.775 10.775 0 0 1 10.775-10.775 10.775 10.775 0 0 1 10.775 10.775z" fill-opacity="0" stroke="#18afe3" stroke-width="5.5084"/>
    </g>
    <g transform="matrix(.97781 0 0 .97781 106.55 -23.01)">
     <path d="m39.859 102a10.775 10.775 0 0 1-10.775 10.775 10.775 10.775 0 0 1-10.775-10.775 10.775 10.775 0 0 1 10.775-10.775 10.775 10.775 0 0 1 10.775 10.775z" fill-opacity="0" stroke="#18afe3" stroke-width="5.5084"/>
    </g>
    <g transform="matrix(.97781 0 0 .97781 74.796 -52.114)">
     <path d="m39.859 102a10.775 10.775 0 0 1-10.775 10.775 10.775 10.775 0 0 1-10.775-10.775 10.775 10.775 0 0 1 10.775-10.775 10.775 10.775 0 0 1 10.775 10.775z" fill-opacity="0" stroke="#18afe3" stroke-width="5.5084"/>
    </g>
   </g>
   <g>
    <g transform="matrix(1.6544 0 0 1.6544 138.31 -236.08)">
     <path d="m71.433 194.2v20.243h-10.686v-15.494q0-4.3039-0.20777-5.9364-0.17809-1.6325-0.65301-2.4042-0.62332-1.0389-1.6919-1.6028-1.0686-0.59364-2.4339-0.59364-3.3244 0-5.224 2.5823-1.8997 2.5527-1.8997 7.094v16.355h-10.626v-33.244h10.626v4.8679q2.4042-2.9088 5.1053-4.2742 2.7011-1.395 5.9661-1.395 5.7583 0 8.7265 3.5322 2.9979 3.5322 2.9979 10.27z" fill="#165083" stroke-width=".31661"/>
     <path d="m77.01 181.2h28.999v7.4205l-17.512 18.225h17.512v7.5986h-29.741v-7.4205l17.512-18.225h-16.77z" fill="#165083" stroke-width=".31661"/>
     <g fill="#18afe3">
      <g fill-opacity=".99524">
       <path d="m157.48 208.8q-2.1965 2.9088-4.8382 4.2742-2.6417 1.3654-6.1145 1.3654-6.0848 0-10.062-4.7788-3.9774-4.8085-3.9774-12.229 0-7.4502 3.9774-12.199 3.9774-4.7788 10.062-4.7788 3.4728 0 6.1145 1.3654 2.6417 1.3654 4.8382 4.3039v-4.9272h10.686v29.89q0 8.0142-5.0756 12.229-5.046 4.2445-14.663 4.2445-3.1166 0-6.0255-0.47491-2.9088-0.47492-5.8474-1.4544v-8.2813q2.7901 1.6028 5.4615 2.3746 2.6714 0.80142 5.3724 0.80142 5.224 0 7.658-2.2855t2.4339-7.1534zm-7.005-20.688q-3.2947 0-5.135 2.4339t-1.8403 6.8862q0 4.571 1.7809 6.9456 1.7809 2.3449 5.1944 2.3449 3.3244 0 5.1647-2.4339t1.8403-6.8566q0-4.4523-1.8403-6.8862t-5.1647-2.4339z"/>
       <path d="m209.15 194.2v20.243h-10.686v-15.435q0-4.3633-0.20778-5.9958-0.17809-1.6325-0.653-2.4042-0.62332-1.0389-1.6919-1.6028-1.0686-0.59364-2.4339-0.59364-3.3244 0-5.224 2.5823-1.8996 2.5527-1.8996 7.094v16.355h-10.626v-46.185h10.626v17.809q2.4042-2.9088 5.1053-4.2742 2.7011-1.395 5.9661-1.395 5.7583 0 8.7265 3.5322 2.9979 3.5322 2.9979 10.27z"/>
       <path d="m230.61 171.76v9.4389h10.953v7.5986h-10.953v14.099q0 2.3152 0.92015 3.1463 0.92014 0.80142 3.6509 0.80142h5.4615v7.5986h-9.1124q-6.2926 0-8.9343-2.612-2.612-2.6417-2.612-8.9343v-14.099h-5.2834v-7.5986h5.2834v-9.4389z"/>
      </g>
      <path d="m14.632 181.2v8.6672h5.7175v24.577h10.626v-33.244h-10.626z"/>
      <path d="m110.95 181.2v8.6672h5.7175v24.577h10.626v-33.244h-10.626z" fill-opacity=".99524"/>
     </g>
     <path d="m270.52 182.01v8.6672h5.7175v24.577h10.626v-33.244h-10.626z" fill="#165083"/>
     <g transform="matrix(.59105 0 0 .59105 261.91 110.41)" fill="#165083">
      <g fill="#165083">
       <path d="m39.859 102a10.775 10.775 0 0 1-10.775 10.775 10.775 10.775 0 0 1-10.775-10.775 10.775 10.775 0 0 1 10.775-10.775 10.775 10.775 0 0 1 10.775 10.775z" fill="#165083"/>
      </g>
     </g>
    </g>
    <g transform="matrix(.97781 0 0 .97781 148.88 -54.76)">
     <path d="m39.859 102a10.775 10.775 0 0 1-10.775 10.775 10.775 10.775 0 0 1-10.775-10.775 10.775 10.775 0 0 1 10.775-10.775 10.775 10.775 0 0 1 10.775 10.775z" fill-opacity="0" stroke="#18afe3" stroke-width="5.5084"/>
    </g>
    <g transform="matrix(.97781 0 0 .97781 307.63 -54.76)">
     <path d="m39.859 102a10.775 10.775 0 0 1-10.775 10.775 10.775 10.775 0 0 1-10.775-10.775 10.775 10.775 0 0 1 10.775-10.775 10.775 10.775 0 0 1 10.775 10.775z" fill-opacity="0" stroke="#18afe3" stroke-width="5.5084"/>
    </g>
   </g>
   <circle cx="145.68" cy="141.72" r=".11383" stroke="#094b85" stroke-width=".08377"/>
   <g fill="none" stroke="#165083" stroke-width="2.3812">
    <rect x="71.438" y="132.29" width="74.083" height="18.521"/>
    <path d="m145.52 141.57h201.08"/>
    <path d="m13.229 141.55h58.208"/>
   </g>
  </g>
 </g>
 <g fill="#165083" stroke-width=".26458" aria-label="lite">
  <path d="m559.49 22.278h17.884v77.729h-17.884z"/>
  <path d="m649.16 28.173v15.885h18.433v12.788h-18.433v23.728q0 3.8964 1.5486 5.2951 1.5486 1.3488 6.1444 1.3488h9.1916v12.788h-15.336q-10.59 0-15.036-4.396-4.396-4.4459-4.396-15.036v-23.728h-8.8918v-12.788h8.8918v-15.885z"/>
  <path d="m734.38 71.883v5.0953h-41.812q0.64941 6.2942 4.5458 9.4413 3.8964 3.1471 10.89 3.1471 5.6448 0 11.539-1.6485 5.9445-1.6984 12.189-5.0953v13.787q-6.3442 2.3978-12.688 3.5967-6.3442 1.2488-12.688 1.2488-15.186 0-23.628-7.6929-8.3923-7.7429-8.3923-21.68 0-13.687 8.2424-21.53 8.2924-7.8428 22.779-7.8428 13.188 0 21.081 7.9427 7.9427 7.9427 7.9427 21.23zm-18.383-5.9445q0-5.0953-2.9972-8.1925-2.9473-3.1471-7.7429-3.1471-5.1952 0-8.4422 2.9473-3.247 2.8973-4.0463 8.3923z"/>
 </g>
</svg>
